# xmcd
#
# Track frame offsets:
# 150
# 18211
# 32176
# 48045
# 70034
# 88954
# 111400
# 126782
# 143193
# 165897
# 184059
#
# Disc length: 2687 seconds
#
# Revision: 1
# Processed by: cddbd v1.5.1PL0 Copyright (c) Steve Scherf et al.
# Submitted via: Easy CD Ripper v2.27
#
DISCID=8c0a7d0b
DTITLE=蔡健雅 - IDO BELIEVE
DYEAR=2001
DGENRE=Blues
TTITLE0=I DO BELIEVE(暖洋洋版)
TTITLE1=可以愛你真好
TTITLE2=WHY
TTITLE3=衝動
TTITLE4=DAY&NIGHT
TTITLE5=跟你借的幸福
TTITLE6=女人的說法
TTITLE7=不夠完美
TTITLE8=變賣
TTITLE9=平凡之歌
TTITLE10=I DO BELIEVE - BELIEVE MIX,星光燦爛
EXTD=
EXTT0=
EXTT1=
EXTT2=
EXTT3=
EXTT4=
EXTT5=
EXTT6=
EXTT7=
EXTT8=
EXTT9=
EXTT10=
PLAYORDER=
